<?xml version="1.0" encoding="utf-8"?>
<!-- Svg Vector Icons : http://www.onlinewebfonts.com/icon -->
<!DOCTYPE svg PUBLIC "-//W3C//DTD SVG 1.1//EN" "http://www.w3.org/Graphics/SVG/1.1/DTD/svg11.dtd">
<svg version="1.1" xmlns="http://www.w3.org/2000/svg" xmlns:xlink="http://www.w3.org/1999/xlink" x="0px" y="0px" viewBox="0 0 1000 1000" enable-background="new 0 0 1000 1000" xml:space="preserve">
<metadata> Svg Vector Icons : http://www.onlinewebfonts.com/icon </metadata>
<g><g><g id="Layer_1_67_"><g><g><path d="M552.1,82.9l-52.1,153l-52.1-153c-9.8-28.8,5.5-60.1,34.4-69.9c28.8-9.8,60.1,5.6,69.9,34.4C556.2,59.3,555.9,71.8,552.1,82.9z"/></g><g><path d="M82.9,447.9l153,52.1l-153,52.1c-28.8,9.8-60.1-5.5-69.9-34.4c-9.8-28.8,5.6-60.1,34.4-69.9C59.3,443.8,71.8,444.1,82.9,447.9z"/></g><g><path d="M447.9,917.1l52.1-153l52.1,153c9.8,28.8-5.5,60.1-34.4,69.9c-28.8,9.8-60.1-5.5-69.9-34.4C443.8,940.7,444.1,928.2,447.9,917.1z"/></g><g><path d="M917.1,552l-153-52.1l153-52.1c28.8-9.8,60.1,5.5,69.9,34.4c9.8,28.8-5.5,60.1-34.4,69.9C940.7,556.1,928.2,555.8,917.1,552z"/></g><g><path d="M241.9,168.2l71.3,145l-145-71.3c-27.3-13.4-38.6-46.5-25.2-73.7c13.5-27.3,46.5-38.5,73.7-25.1C228.1,148.6,236.7,157.6,241.9,168.2z"/></g><g><path d="M168.2,758l145-71.3l-71.3,145c-13.4,27.3-46.5,38.5-73.7,25.1c-27.3-13.5-38.5-46.5-25.1-73.7C148.6,771.8,157.6,763.3,168.2,758z"/></g><g><path d="M758,831.8l-71.3-145l145,71.3c27.3,13.4,38.5,46.5,25.1,73.7c-13.5,27.3-46.5,38.5-73.7,25.1C771.8,851.3,763.3,842.3,758,831.8z"/></g><g><path d="M831.7,241.8l-145.1,71.3L758,168.1c13.4-27.3,46.5-38.5,73.7-25.1c27.3,13.5,38.5,46.5,25.1,73.8C851.3,228,842.2,236.6,831.7,241.8z"/></g><g><path d="M500,734.6c-129.4,0-234.6-105.3-234.6-234.6S370.6,265.4,500,265.4c129.4,0,234.6,105.3,234.6,234.6S629.4,734.6,500,734.6z M500,369.6c-71.9,0-130.4,58.4-130.4,130.4c0,71.9,58.4,130.4,130.4,130.4c71.9,0,130.4-58.4,130.4-130.4C630.3,428.1,571.9,369.6,500,369.6z"/></g></g></g></g><g></g><g></g><g></g><g></g><g></g><g></g><g></g><g></g><g></g><g></g><g></g><g></g><g></g><g></g><g></g></g>
</svg>